<svg width="100" height="100" viewBox="0 0 100 100" fill="none" xmlns="http://www.w3.org/2000/svg">
<rect width="100" height="100" fill="#D9D9D9"/>
<path d="M23.064 56.136V57.288H34.92V56.136H23.064ZM21.912 44.616V45.752H36.072V44.616H21.912ZM22.408 47.352V58.28H23.576V47.352H22.408ZM34.44 47.352V58.232H35.624V47.352H34.44ZM28.328 44.968V48.056H29.544V44.968H28.328ZM28.408 47.96V54.296H29.464V47.96H28.408ZM26.12 51.608H31.768V53.704H26.12V51.608ZM26.12 48.552H31.768V50.632H26.12V48.552ZM25.096 47.528V54.728H32.824V47.528H25.096ZM44.536 43.592C43.88 44.84 42.68 46.408 41.032 47.576C41.32 47.72 41.704 48.024 41.912 48.264C43.624 46.936 44.856 45.288 45.704 43.8L44.536 43.592ZM44.616 44.6L43.88 45.528H48.488V44.6H44.616ZM43.48 47.608H50.584V49.416H43.48V47.608ZM42.376 46.712V50.296H51.752V46.712H42.376ZM46.424 47.08V49.8H47.512V47.08H46.424ZM46.488 49.512C45.32 50.568 43.224 51.496 41.4 52.04C41.624 52.248 41.944 52.664 42.104 52.872C43.928 52.216 46.12 51.112 47.432 49.896L46.488 49.512ZM44.808 51.224C47.448 53.208 47.528 56.328 46.568 57.016C46.28 57.256 45.992 57.288 45.592 57.288C45.272 57.288 44.792 57.272 44.28 57.224C44.472 57.528 44.568 57.976 44.568 58.264C45.032 58.296 45.48 58.296 45.816 58.296C46.456 58.28 46.888 58.184 47.352 57.8C48.728 56.776 48.648 52.92 45.592 50.712L44.808 51.224ZM46.232 51.864C45.224 52.792 43.128 53.864 41.528 54.312C41.768 54.536 42.024 54.888 42.152 55.144C43.784 54.536 45.864 53.368 46.968 52.36L46.232 51.864ZM47.064 53.576C45.848 54.904 43.272 56.344 41.24 56.984C41.48 57.208 41.752 57.592 41.896 57.88C43.976 57.096 46.52 55.544 47.864 54.152L47.064 53.576ZM51.368 50.792C50.712 51.448 49.544 52.376 48.712 52.888L49.416 53.544C50.264 53.032 51.384 52.232 52.216 51.496L51.368 50.792ZM48.264 49.688L47.272 49.88C48.008 53.272 49.432 56.168 51.672 57.592C51.848 57.288 52.216 56.872 52.472 56.648C50.344 55.432 48.936 52.712 48.264 49.688ZM48.104 44.6V44.808C47.816 45.432 47.24 46.296 46.728 46.824C46.936 46.984 47.256 47.32 47.416 47.528C48.04 46.904 48.808 45.928 49.304 45.032L48.568 44.52L48.36 44.6H48.104ZM40.712 43.656C39.944 46.12 38.68 48.584 37.272 50.184C37.48 50.488 37.8 51.128 37.912 51.416C39.496 49.544 40.92 46.728 41.832 43.96L40.712 43.656ZM39.432 47.576V58.28H40.568V46.504L40.536 46.472L39.432 47.576ZM54.536 46.92L54.632 48.12C55.224 48.136 55.912 48.152 56.504 48.152C58.456 48.168 60.552 47.816 62.12 47.384L62.088 46.2C60.248 46.808 58.232 47.016 56.504 47.016C55.816 47.016 55.128 46.984 54.536 46.92ZM60.216 44.312L58.808 44.168C58.76 45.288 58.408 46.696 58.056 47.704C57.4 49.592 55.912 52.44 54.488 54.104L55.72 54.744C57.048 52.952 58.52 50.04 59.288 47.736C59.672 46.6 60.008 45.096 60.216 44.312ZM63.992 49.256H62.728C62.792 51.016 62.968 53.88 62.968 55.096C62.968 55.96 62.52 56.664 61.192 56.664C59.944 56.664 59.32 56.152 59.32 55.416C59.32 54.68 60.12 54.136 61.304 54.136C63.656 54.136 65.496 55.56 66.728 56.68L67.4 55.592C66.088 54.456 64.024 53.112 61.336 53.112C59.544 53.112 58.152 54.04 58.152 55.512C58.152 57.112 59.576 57.816 61.336 57.816C63.32 57.816 64.136 56.776 64.136 55.496C64.136 54.44 63.992 52.008 63.96 50.968C63.944 50.392 63.944 49.912 63.992 49.256ZM67.192 49.672L67.912 48.616C67.144 48.04 65.336 47 64.168 46.504L63.528 47.464C64.584 47.96 66.328 48.936 67.192 49.672ZM74.44 44.536H72.808C72.904 45 72.952 45.56 72.952 46.152C72.952 47.832 72.792 51.88 72.792 54.248C72.792 56.872 74.376 57.816 76.68 57.816C80.184 57.816 82.264 55.816 83.352 54.296L82.456 53.208C81.304 54.872 79.64 56.504 76.712 56.504C75.192 56.504 74.088 55.896 74.088 54.136C74.088 51.752 74.216 47.96 74.28 46.152C74.312 45.624 74.36 45.064 74.44 44.536Z" fill="black"/>
</svg>
